<?xml version="1.0" encoding="utf-8"?>
<!-- Generator: Adobe Illustrator 25.3.0, SVG Export Plug-In . SVG Version: 6.00 Build 0)  -->
<svg version="1.1" id="Capa_1" xmlns="http://www.w3.org/2000/svg" xmlns:xlink="http://www.w3.org/1999/xlink" x="0px" y="0px"
	 viewBox="0 0 244.3 176.4" style="enable-background:new 0 0 244.3 176.4;" xml:space="preserve">
<style type="text/css">
	.st0{fill:#D92525;}
	.st1{fill:#DCFFFC;}
	.st2{fill:#8C1F28;}
</style>
<g>
	<path class="st0" d="M204,26.9c1.5-0.1,2.9,0,4.4-0.2c10.3-1.2,17.4,3.6,20.3,13.9c-1.6,0.3-2.5-0.8-3.3-1.8
		c-4-5.5-9.4-5.6-15.2-3.9c-4.5,1.3-8.9,2.7-13.2,4.6c-4.2,1.8-8.2,2-12.5,0.3c-4.7-1.8-9.5-2.7-14.6-2.9
		c-10.8-0.4-18.4,4.8-24,13.4c-3,4.4-4.9,9.4-7.4,14.1c-1.9,3.4,0,5.7,2.6,7.6c6.6,4.7,13.4,9.2,20.6,13.1c1,0.5,2.1,1.1,3.1,1.6
		c5.5,2.9,9.3,6.4,7.6,13.7c-2,8.2-0.5,16.5,0.5,24.7c0.2,2.1,0.7,4.3-1.2,6.1c-12,3.3-24.2,6-36.8,5.5c-15.8,0-30.5,4.6-44.8,10.8
		c-12.7,5.6-25.5,6.5-37.8-1.1c-7.8-4.8-11.8-11.9-11.4-21.3c0.3-6.8,1.1-13.6,0.1-20.4c23.6-8.6,45.3-20.8,64.6-35.9
		C85,81.8,62.2,90.6,37.7,95c-1.5-1.6-3.3-1.1-5.1-0.8c-11.3,1.8-21,7-29.6,14.4c-6.5-12-1.7-29.2,9.3-34.8
		c8.8-4.4,18.1-5.3,27.7-4.8c28.2,1.3,54.8-4.7,79.9-17.6c10.1-5.2,19.5-11.4,29.3-17.1c4-2.4,8.1-4.5,12.5-6.1
		c4.4-1.6,8.7-2.1,13.2-0.7c4.1,1,7.6,3.3,11.1,5.5c2.8,1.8,5.4,2,8.3,0C197.3,30.8,200.9,29.3,204,26.9z"/>
	<path class="st1" d="M172,130.6c-1.5-11.9-2.5-23.7-0.6-35.7c0.6-3.5-3.5-5.3-6.4-6.7c-8.7-4.2-16.9-9.3-24.7-15
		c-5.3-3.9-5.6-5.4-2.3-11.1c1.6-2.9,3.1-5.9,4.6-8.9c7.9-15.6,21.2-21.7,37.7-16.1c7.3,2.5,13.7,2.8,20.4-0.5
		c1.6-0.8,3.4-1.2,5.2-1.8c12.4-4.2,14.4-3.7,22.8,5.8c6.7,6.7,10,15.5,14.6,23.4c1.8,3,1.1,5.7-1.7,7.8c-2.6,2-5.3,4-7.9,5.9
		c-1.8,3.2-5.1,4.6-8.1,6.3c-2.8,1.7-5.9,3-8.8,4.5c-6.2,3.3-6.9,4.8-5.9,11.9c0.4,2.6,0.3,5.3,0.4,7.9c0.2,6.2,0.1,12.3-1.2,18.4
		c-3.1,6.6-8.6,10.1-15.2,12.4c-0.7-0.2-1.4-0.5-1.6-1.1c-2.3-8.4-3.8-16.9-3-24.3c-0.3,9-1.8,19.2-3.6,29.4
		c-3.1,4.1-7,6.1-12.2,5.3C173.2,142.6,171.4,136.8,172,130.6z"/>
	<path class="st0" d="M195.8,138.6c4.3-3.7,9.8-6,12.9-11c1.1-1.6,2.1-3.3,3.6-4.7c8.3-8.2,13.7-18.2,17.4-29.9
		c-4,6.8-7.8,12.9-13.9,17.2c-1.5,1-2.8,3.1-4.6,2.5c-2-0.8-0.2-3.4-1.2-4.9c-0.3-2.9-0.3-6-1-8.8c-1.3-5.1,1-8.3,5.2-10.3
		c6.7-3.2,13.1-7,19.4-10.8c-0.2,23.2-4.2,45.6-14,66.9c-3.6,7.7-7.1,15.4-13.9,21c-2.6,2.5-5.4,3.9-9,2c-1.5,0-3-0.1-4.5-0.1
		c-7.7-0.1-13.3-1.5-14.8,5.4c-1.1-0.4,4.5,0,4.3-1c-1.3-5.7,0.2-6-4.9-3.3c0.2-2.4-3.5-4.1-6-4.9c-5.8-1.8-11.3-4.3-15.6-9.4
		c3.2-2.7,7.9-0.9,10.7-3.9c3-1.1,5.8-2.8,9.2-2.2c3.6-1.5,7.5-2.4,10.7-4.8C188.3,140.3,192.9,139.7,195.8,138.6z"/>
	<path class="st1" d="M204,26.9c1,1.6-0.5,1.8-1.3,2.4c-7.8,6.2-15.6,8.4-23.8,0.8c-1.2-1.1-2.7-1.8-4-2.7c5.4-0.9,6.8-4.5,6.1-9.4
		c-0.3-2.1-0.7-4.3-0.9-6.4c-0.5-4.1,0.6-7.6,4.2-9.9c4-2.4,8.2-2.4,12.2,0.2c3.6,2.3,4.6,5.8,3.9,10c-0.4,2.4-0.9,4.9-1,7.4
		C199.1,22.8,199.7,26.1,204,26.9z"/>
	<path class="st2" d="M37.7,95c1.9-3.1,5.4-2.4,8.1-3c20.9-4.4,40.1-12.5,58.2-23.7c0.8-0.5,1.7-1,2.6-1.4c0.7-0.4,1.5-0.7,2.5-0.6
		c-2.8,4.2-7.1,6.9-11.1,9.8c-16.2,11.8-33.9,20.8-52.3,28.6c-1.5,0.6-3.1,1.4-4.7,0.1C39.9,101.4,38.8,98.2,37.7,95z"/>
	<path class="st2" d="M175.1,148.4c-3,1.1-5.7,3.1-9.2,2.2c-7.3-7.7-16.7-11-26.8-13c-1.4-0.3-2.9-0.6-4.3-1c3.4-2.4,7.3-0.6,11-1.4
		c8.6-1.9,17.4-3.1,26.1-4.6C174,136.4,174.6,142.4,175.1,148.4z"/>
	<path class="st1" d="M196.7,167.7c3.2,0.2,6-1.6,9-2c0,4.3,2,6.9,6.3,7.6c1.3,0.2,3,0.7,2.7,2.3c-0.3,1.9-2.2,1-3.3,1
		c-2.8,0.1-5.7-0.2-8.5,0.1c-4.9,0.6-6.7-1.4-6.1-6.1C196.9,169.7,196.8,168.7,196.7,167.7z"/>
	<path class="st1" d="M183.5,167.4c-3.2,0.2-6-1.6-9-2c0,4.3-2,6.9-6.3,7.6c-1.3,0.2-3,0.7-2.7,2.3c0.3,1.9,2.2,1,3.3,1
		c2.8,0.1,5.7-0.2,8.5,0.1c4.9,0.6,6.7-1.4,6.1-6.1C183.3,169.5,183.4,168.4,183.5,167.4z"/>
	<path class="st2" d="M210,107.7c1.4,1.1,0.3,2.9,1.3,4.3c8.7-5.1,13.9-13.1,18.7-22.2c1.7,9.3-9.6,28.9-21.3,37.9
		C209.2,121,209.6,114.3,210,107.7z"/>
	<path class="st0" d="M163,55.6c1.7,7.3,5.2,11.9,7.2,17.1c1.2,3.1,3.7,7.6,1,9.5c-2.8,1.9-5.2-3-7.8-4.7c-0.5-0.4-1-0.9-1.4-1.4
		c-2.9-3.4-8-6.6-8.2-10.1C153.6,62.3,160.4,60.9,163,55.6z"/>
	<path class="st0" d="M217.2,55.9c1.5,1.9,2.2,2.8,2.9,3.7c1.9,2.6,6.8,3.6,6.5,6.7c-0.3,2.5-3.8,4.8-6,7c-2.8,2.8-5.7,5.6-8.5,8.3
		c-1,1-2.4,1.6-3.6,0.7c-1.1-0.7-0.5-2.1-0.4-3.3C209.1,71,215,64.9,217.2,55.9z"/>
	<path class="st2" d="M195.2,139c-3.3,1.7-6,3-9.4,4.6c0.7-10.7,2.6-21.2,4.6-31.8c1.1,7.9,2.2,15.8,3.3,23.7
		C193.9,136.9,194.3,138.3,195.2,139z"/>
</g>
</svg>
